<svg xmlns="http://www.w3.org/2000/svg" xmlns:xlink="http://www.w3.org/1999/xlink" width="500" zoomAndPan="magnify" viewBox="0 0 375 374.999991" height="500" preserveAspectRatio="xMidYMid meet" version="1.2"><defs><clipPath id="bd583953cd"><path d="M 81 9 L 302 9 L 302 155 L 81 155 Z M 81 9 "/></clipPath><clipPath id="ad557356ee"><path d="M 72.421875 20.4375 L 289.667969 0.402344 L 301.996094 134.089844 L 84.753906 154.125 Z M 72.421875 20.4375 "/></clipPath><clipPath id="427c84cd9a"><path d="M 145.457031 20.027344 C 156.207031 15.21875 168.675781 11.558594 181.105469 10.414062 C 193.53125 9.269531 205.6875 10.296875 217.054688 13.066406 C 217.300781 13.164062 217.535156 13.140625 217.78125 13.238281 C 260.566406 24.574219 294.738281 61.765625 299.359375 105.496094 L 301.996094 134.089844 L 84.753906 154.125 L 82.117188 125.554688 C 78.640625 81.457031 104.964844 38.683594 145.457031 20.027344 Z M 145.457031 20.027344 "/></clipPath><clipPath id="01f95917c8"><path d="M 0 0.160156 L 221 0.160156 L 221 145.359375 L 0 145.359375 Z M 0 0.160156 "/></clipPath><clipPath id="59f0459af5"><path d="M -8.578125 11.4375 L 208.667969 -8.597656 L 220.996094 125.089844 L 3.753906 145.125 Z M -8.578125 11.4375 "/></clipPath><clipPath id="9b76d727a1"><path d="M 64.457031 11.027344 C 75.207031 6.21875 87.675781 2.558594 100.105469 1.414062 C 112.53125 0.269531 124.6875 1.296875 136.054688 4.066406 C 136.300781 4.164062 136.535156 4.140625 136.78125 4.238281 C 179.566406 15.574219 213.738281 52.765625 218.359375 96.496094 L 220.996094 125.089844 L 3.753906 145.125 L 1.117188 116.554688 C -2.359375 72.457031 23.964844 29.683594 64.457031 11.027344 Z M 64.457031 11.027344 "/></clipPath><clipPath id="934d1a9860"><rect x="0" width="221" y="0" height="146"/></clipPath><clipPath id="887b3ac4c8"><path d="M 6 106 L 205 106 L 205 191 L 6 191 Z M 6 106 "/></clipPath><clipPath id="eeb6e50b3c"><path d="M 0 127.890625 L 198.300781 93.058594 L 211.691406 169.285156 L 13.386719 204.113281 Z M 0 127.890625 "/></clipPath><clipPath id="d83d91edb2"><path d="M 99.015625 110.496094 C 44.332031 120.101562 2.996094 144.953125 6.695312 166 C 10.390625 187.050781 57.71875 196.328125 112.402344 186.722656 C 167.085938 177.117188 208.417969 152.269531 204.722656 131.21875 C 201.027344 110.171875 153.699219 100.894531 99.015625 110.496094 Z M 99.015625 110.496094 "/></clipPath><clipPath id="4d741a1941"><path d="M -6 21.890625 L 192.300781 -12.941406 L 205.691406 63.285156 L 7.386719 98.113281 Z M -6 21.890625 "/></clipPath><clipPath id="2e8c5fa800"><path d="M 93.015625 4.496094 C 38.332031 14.101562 -3.003906 38.953125 0.695312 60 C 4.390625 81.050781 51.71875 90.328125 106.402344 80.722656 C 161.085938 71.117188 202.417969 46.269531 198.722656 25.21875 C 195.027344 4.171875 147.699219 -5.105469 93.015625 4.496094 Z M 93.015625 4.496094 "/></clipPath><clipPath id="154dbde541"><rect x="0" width="199" y="0" height="85"/></clipPath><clipPath id="2164df683a"><path d="M 131 79 L 321 79 L 321 189 L 131 189 Z M 131 79 "/></clipPath><clipPath id="3f153861ea"><path d="M 136.75 71.003906 L 325.902344 89.957031 L 315.164062 197.085938 L 126.015625 178.132812 Z M 136.75 71.003906 "/></clipPath><clipPath id="d556b7f123"><path d="M 231.363281 80.484375 C 179.339844 75.269531 134.765625 95.027344 131.800781 124.609375 C 128.835938 154.191406 168.605469 182.398438 220.628906 187.613281 C 272.648438 192.828125 317.226562 173.070312 320.191406 143.488281 C 323.15625 113.90625 283.386719 85.695312 231.363281 80.484375 Z M 231.363281 80.484375 "/></clipPath><clipPath id="fc7235606f"><path d="M 5.75 -7.996094 L 194.902344 10.957031 L 184.164062 118.085938 L -4.984375 99.132812 Z M 5.75 -7.996094 "/></clipPath><clipPath id="249aac6e04"><path d="M 100.363281 1.484375 C 48.339844 -3.730469 3.765625 16.027344 0.800781 45.609375 C -2.164062 75.191406 37.605469 103.398438 89.628906 108.613281 C 141.648438 113.828125 186.226562 94.070312 189.191406 64.488281 C 192.15625 34.90625 152.386719 6.695312 100.363281 1.484375 Z M 100.363281 1.484375 "/></clipPath><clipPath id="caaf91e0e4"><rect x="0" width="190" y="0" height="110"/></clipPath><clipPath id="38f727a744"><path d="M 45 74 L 165 74 L 165 95 L 45 95 Z M 45 74 "/></clipPath><clipPath id="342be7184e"><path d="M 164.097656 67.824219 L 165.609375 80.742188 L 47.273438 94.570312 L 45.761719 81.652344 Z M 164.097656 67.824219 "/></clipPath><clipPath id="ebef399096"><path d="M 164.851562 74.28125 L 47.3125 94.566406 L 45.804688 81.648438 Z M 164.851562 74.28125 "/></clipPath><clipPath id="4247a397a6"><path d="M 0.601562 0.199219 L 119.878906 0.199219 L 119.878906 20.601562 L 0.601562 20.601562 Z M 0.601562 0.199219 "/></clipPath><clipPath id="a73ffd2802"><path d="M 119.097656 -6.175781 L 120.609375 6.742188 L 2.273438 20.570312 L 0.761719 7.652344 Z M 119.097656 -6.175781 "/></clipPath><clipPath id="739fb89276"><path d="M 119.851562 0.28125 L 2.3125 20.566406 L 0.804688 7.648438 Z M 119.851562 0.28125 "/></clipPath><clipPath id="07db53fda0"><rect x="0" width="120" y="0" height="21"/></clipPath><clipPath id="82bf28fbae"><path d="M 182 31 L 302 31 L 302 50 L 182 50 Z M 182 31 "/></clipPath><clipPath id="0c341dcb4b"><path d="M 182.738281 55.664062 L 181.480469 42.71875 L 300.0625 31.203125 L 301.320312 44.148438 Z M 182.738281 55.664062 "/></clipPath><clipPath id="9734837fde"><path d="M 182.109375 49.191406 L 300.023438 31.207031 L 301.277344 44.152344 Z M 182.109375 49.191406 "/></clipPath><clipPath id="e374055c48"><path d="M 0 0 L 119.441406 0 L 119.441406 18.238281 L 0 18.238281 Z M 0 0 "/></clipPath><clipPath id="41ed9ff44c"><path d="M 0.738281 24.664062 L -0.519531 11.71875 L 118.0625 0.203125 L 119.320312 13.148438 Z M 0.738281 24.664062 "/></clipPath><clipPath id="cbd1f14e51"><path d="M 0.109375 18.191406 L 118.023438 0.207031 L 119.277344 13.152344 Z M 0.109375 18.191406 "/></clipPath><clipPath id="9509a26648"><rect x="0" width="120" y="0" height="19"/></clipPath><clipPath id="8c9a6cf29c"><path d="M 66.695312 87.578125 L 318.050781 87.578125 L 318.050781 182.855469 L 66.695312 182.855469 Z M 66.695312 87.578125 "/></clipPath><clipPath id="e2e2f40aae"><path d="M 1 1 L 252.050781 1 L 252.050781 95.855469 L 1 95.855469 Z M 1 1 "/></clipPath><clipPath id="ceace1bac2"><rect x="0" width="253" y="0" height="96"/></clipPath><clipPath id="f2280ea6be"><rect x="0" width="326" y="0" height="237"/></clipPath></defs><g id="0562b21518"><rect x="0" width="375" y="0" height="374.999991" style="fill:#ffffff;fill-opacity:1;stroke:none;"/><rect x="0" width="375" y="0" height="374.999991" style="fill:#ffffff;fill-opacity:1;stroke:none;"/><g transform="matrix(1,0,0,1,0,71)"><g clip-path="url(#f2280ea6be)"><g clip-rule="nonzero" clip-path="url(#bd583953cd)"><g clip-rule="nonzero" clip-path="url(#ad557356ee)"><g clip-rule="nonzero" clip-path="url(#427c84cd9a)"><g transform="matrix(1,0,0,1,81,9)"><g id="190e545ea3" clip-path="url(#934d1a9860)"><g clip-rule="nonzero" clip-path="url(#01f95917c8)"><g clip-rule="nonzero" clip-path="url(#59f0459af5)"><g clip-rule="nonzero" clip-path="url(#9b76d727a1)"><path style=" stroke:none;fill-rule:nonzero;fill:#ffbd59;fill-opacity:1;" d="M -8.578125 11.4375 L 208.667969 -8.597656 L 220.996094 125.089844 L 3.753906 145.125 Z M -8.578125 11.4375 "/></g></g></g></g></g></g></g></g><g clip-rule="nonzero" clip-path="url(#887b3ac4c8)"><g clip-rule="nonzero" clip-path="url(#eeb6e50b3c)"><g clip-rule="nonzero" clip-path="url(#d83d91edb2)"><g transform="matrix(1,0,0,1,6,106)"><g id="87bb967b20" clip-path="url(#154dbde541)"><g clip-rule="nonzero" clip-path="url(#4d741a1941)"><g clip-rule="nonzero" clip-path="url(#2e8c5fa800)"><path style=" stroke:none;fill-rule:nonzero;fill:#ffffff;fill-opacity:1;" d="M -6 21.890625 L 192.003906 -12.886719 L 205.390625 63.335938 L 7.386719 98.113281 Z M -6 21.890625 "/></g></g></g></g></g></g></g><g clip-rule="nonzero" clip-path="url(#2164df683a)"><g clip-rule="nonzero" clip-path="url(#3f153861ea)"><g clip-rule="nonzero" clip-path="url(#d556b7f123)"><g transform="matrix(1,0,0,1,131,79)"><g id="a337b8c149" clip-path="url(#caaf91e0e4)"><g clip-rule="nonzero" clip-path="url(#fc7235606f)"><g clip-rule="nonzero" clip-path="url(#249aac6e04)"><path style=" stroke:none;fill-rule:nonzero;fill:#ffffff;fill-opacity:1;" d="M 6.167969 -7.957031 L 194.484375 10.914062 L 183.746094 118.046875 L -4.566406 99.175781 Z M 6.167969 -7.957031 "/></g></g></g></g></g></g></g><g clip-rule="nonzero" clip-path="url(#38f727a744)"><g clip-rule="nonzero" clip-path="url(#342be7184e)"><g clip-rule="nonzero" clip-path="url(#ebef399096)"><g transform="matrix(1,0,0,1,45,74)"><g id="12d33f57d8" clip-path="url(#07db53fda0)"><g clip-rule="nonzero" clip-path="url(#4247a397a6)"><g clip-rule="nonzero" clip-path="url(#a73ffd2802)"><g clip-rule="nonzero" clip-path="url(#739fb89276)"><path style=" stroke:none;fill-rule:nonzero;fill:#ffffff;fill-opacity:1;" d="M 119.097656 -6.175781 L 120.609375 6.742188 L 2.324219 20.566406 L 0.8125 7.644531 Z M 119.097656 -6.175781 "/></g></g></g></g></g></g></g></g><g clip-rule="nonzero" clip-path="url(#82bf28fbae)"><g clip-rule="nonzero" clip-path="url(#0c341dcb4b)"><g clip-rule="nonzero" clip-path="url(#9734837fde)"><g transform="matrix(1,0,0,1,182,31)"><g id="0c5584f335" clip-path="url(#9509a26648)"><g clip-rule="nonzero" clip-path="url(#e374055c48)"><g clip-rule="nonzero" clip-path="url(#41ed9ff44c)"><g clip-rule="nonzero" clip-path="url(#cbd1f14e51)"><path style=" stroke:none;fill-rule:nonzero;fill:#ffffff;fill-opacity:1;" d="M 0.738281 24.664062 L -0.519531 11.71875 L 118.011719 0.207031 L 119.269531 13.152344 Z M 0.738281 24.664062 "/></g></g></g></g></g></g></g></g><g clip-rule="nonzero" clip-path="url(#8c9a6cf29c)"><g transform="matrix(1,0,0,1,66,87)"><g id="c8e9432650" clip-path="url(#ceace1bac2)"><g clip-rule="nonzero" clip-path="url(#e2e2f40aae)"><path style=" stroke:none;fill-rule:nonzero;fill:#000000;fill-opacity:1;" d="M 32.640625 90.054688 C 31.140625 90.269531 29.960938 90.484375 29.105469 90.484375 C 22.03125 91.128906 14.960938 91.878906 7.886719 92.847656 C 6.601562 93.0625 3.28125 93.277344 2.316406 94.136719 C 2.207031 94.242188 2.207031 94.242188 2.316406 94.351562 C 2.851562 94.566406 3.171875 94.78125 3.386719 94.78125 C 7.351562 95.210938 11.421875 95.425781 15.496094 95.425781 C 49.570312 95.855469 83.753906 94.671875 117.722656 92.953125 C 122.222656 92.738281 129.292969 92.203125 139.042969 91.449219 C 176.011719 88.441406 211.050781 85.328125 244.164062 82.320312 C 245.878906 82.214844 247.164062 82.105469 248.128906 82 C 244.378906 81.890625 240.734375 81.785156 236.984375 81.675781 C 236.875 81.675781 236.875 81.675781 236.984375 81.570312 C 242.234375 78.238281 244.804688 72.761719 245.664062 66.636719 C 245.664062 66.421875 245.769531 66.316406 245.984375 66.207031 L 251.769531 62.878906 C 252.09375 62.664062 252.199219 62.234375 251.984375 61.910156 C 250.699219 59.976562 249.519531 58.902344 249.949219 56.433594 C 250.378906 53.960938 250.699219 51.597656 251.128906 49.234375 C 251.554688 46.765625 251.769531 44.941406 251.769531 43.757812 C 251.664062 39.246094 250.054688 33.875 248.984375 30.222656 C 248.449219 28.289062 248.234375 26.785156 246.304688 25.925781 C 244.589844 25.175781 242.984375 24.746094 241.375 24.53125 C 236.984375 23.992188 232.160156 23.671875 226.910156 23.5625 C 221.769531 23.457031 216.945312 23.347656 212.339844 23.777344 C 207.515625 24.207031 203.230469 26.464844 198.835938 28.613281 C 198.300781 28.933594 197.015625 28.933594 196.265625 28.933594 C 175.261719 29.148438 156.617188 28.933594 133.257812 29.042969 C 125.863281 29.042969 119.113281 29.257812 113.113281 29.578125 C 96.289062 30.546875 80.003906 33.875 64.144531 39.675781 C 62.535156 40.214844 60.820312 41.074219 59.214844 41.71875 C 59.105469 41.71875 59.105469 41.71875 59.105469 41.609375 C 59.105469 41.609375 59.105469 41.503906 59.105469 41.503906 C 75.5 31.40625 95.003906 27 113.96875 26.894531 C 126.613281 26.785156 136.792969 26.785156 144.507812 26.894531 C 144.832031 26.894531 144.9375 26.785156 145.152344 26.679688 C 148.796875 22.273438 152.546875 18.085938 156.402344 13.894531 C 160.367188 9.597656 164.441406 6.160156 170.546875 5.515625 C 186.835938 3.90625 204.515625 11.425781 218.230469 20.449219 C 218.230469 20.449219 218.339844 20.449219 218.339844 20.554688 C 218.445312 20.664062 218.339844 20.664062 218.339844 20.554688 C 206.125 13.359375 191.550781 6.914062 177.191406 6.160156 C 172.476562 5.945312 167.546875 6.484375 163.476562 9.0625 C 161.441406 10.457031 159.082031 12.390625 156.511719 15.183594 C 152.972656 18.945312 149.652344 22.8125 146.332031 26.679688 C 146.332031 26.679688 146.332031 26.785156 146.332031 26.785156 C 155.761719 26.785156 165.296875 26.785156 174.726562 26.785156 C 181.15625 26.785156 187.585938 27 194.121094 26.785156 C 196.050781 26.679688 198.621094 25.175781 200.335938 24.316406 C 202.800781 23.132812 204.945312 22.273438 207.300781 22.167969 C 212.015625 21.953125 217.375 21.953125 223.589844 22.382812 C 223.695312 22.382812 223.695312 22.382812 223.589844 22.273438 C 207.515625 11.210938 190.90625 3.261719 171.511719 1.757812 C 155.546875 0.578125 138.078125 1.652344 121.683594 3.90625 C 119.863281 4.121094 117.933594 4.550781 115.898438 5.195312 C 102.289062 9.0625 88.894531 16.472656 77.644531 23.132812 C 77.429688 23.242188 77.429688 23.347656 77.644531 23.347656 C 79.253906 23.242188 80.96875 23.132812 82.46875 23.132812 C 91.683594 23.027344 101.003906 23.132812 110.21875 23.242188 C 110.21875 23.242188 110.328125 23.242188 110.21875 23.347656 C 110.21875 23.347656 110.21875 23.347656 110.21875 23.457031 C 100.46875 23.992188 90.71875 24.746094 80.96875 25.710938 C 59.105469 27.859375 37.785156 32.800781 17.53125 41.289062 C 17.53125 41.289062 17.425781 41.289062 17.425781 41.289062 C 17.316406 41.289062 17.316406 41.179688 17.425781 41.179688 C 24.175781 37.3125 31.140625 33.875 38.320312 30.761719 C 38.746094 30.546875 38.746094 30.4375 38.210938 30.4375 C 26.316406 30.546875 12.171875 31.726562 5.207031 43.113281 C 5.101562 43.222656 5.207031 43.328125 5.316406 43.328125 C 16.136719 44.832031 26.960938 46.65625 38.210938 46.011719 C 47 45.476562 55.785156 44.617188 64.679688 43.867188 C 81.289062 42.578125 97.789062 40.644531 114.398438 39.03125 C 114.398438 39.03125 114.398438 39.03125 114.507812 39.03125 C 114.507812 39.03125 114.507812 39.03125 114.507812 39.140625 C 107.96875 41.933594 101.539062 44.832031 95.003906 47.625 C 91.039062 49.34375 86.433594 51.277344 81.71875 51.492188 C 77.324219 51.707031 72.289062 51.921875 66.5 51.921875 C 66.074219 51.921875 65.859375 52.027344 65.535156 51.597656 C 62.214844 47.625 57.820312 45.796875 52.570312 46.121094 C 47.964844 46.335938 43.460938 46.871094 38.960938 47.195312 C 33.28125 47.625 27.925781 47.410156 22.351562 46.65625 C 19.996094 46.335938 18.390625 46.226562 17.53125 46.335938 C 14.210938 46.65625 11.746094 48.589844 10.246094 51.921875 C 10.246094 52.027344 10.136719 52.027344 10.03125 52.027344 L 2.742188 51.277344 C 2.636719 51.277344 2.636719 51.277344 2.636719 51.382812 L 1.992188 55.144531 C 1.992188 55.25 2.101562 55.359375 2.207031 55.359375 C 16.03125 56.109375 29.960938 56.539062 43.785156 56.433594 C 59.644531 56.21875 73.789062 55.464844 88.144531 55.25 C 88.144531 55.25 88.144531 55.359375 88.144531 55.359375 C 87.71875 55.464844 87.394531 55.464844 86.96875 55.464844 C 73.359375 56.648438 59.855469 57.9375 46.25 59.011719 C 40.785156 59.441406 35.855469 59.976562 30.605469 59.441406 C 21.601562 58.582031 9.710938 56.863281 1.992188 55.679688 C 1.886719 55.679688 1.886719 55.679688 1.78125 55.789062 L 1.351562 63.738281 C 1.351562 63.84375 1.457031 63.953125 1.566406 63.953125 L 15.496094 65.777344 C 15.601562 65.777344 15.710938 65.886719 15.710938 65.992188 C 15.710938 65.992188 15.710938 66.101562 15.601562 66.101562 C 15.496094 66.207031 15.28125 66.316406 14.960938 66.316406 C 11.421875 66.101562 7.78125 65.777344 4.246094 65.457031 C 4.136719 65.457031 4.136719 65.457031 4.136719 65.5625 L 4.246094 68.25 C 4.246094 68.355469 4.351562 68.355469 4.351562 68.355469 C 6.707031 68.25 8.960938 68.570312 10.886719 69 C 19.460938 71.257812 25.03125 72.652344 27.390625 73.296875 C 31.140625 74.265625 33.820312 74.050781 37.890625 73.296875 C 44.75 72.007812 51.605469 70.828125 58.570312 69.644531 C 59.964844 69.429688 61.359375 69.214844 62.859375 69.214844 C 72.179688 69 81.609375 69 90.933594 69.214844 C 91.039062 69.214844 91.039062 69.214844 91.144531 69.324219 C 91.144531 69.324219 91.253906 69.324219 91.253906 69.324219 C 91.359375 69.324219 91.359375 69.324219 91.253906 69.429688 C 91.253906 69.429688 91.144531 69.429688 91.144531 69.429688 C 91.144531 69.429688 91.039062 69.429688 91.039062 69.429688 C 82.789062 69.859375 74.644531 70.289062 66.394531 70.613281 C 64.894531 70.71875 63.5 70.71875 61.894531 71.042969 C 54.179688 72.222656 46.355469 73.511719 38.640625 74.695312 C 33.925781 75.445312 31.675781 75.875 27.816406 74.910156 C 19.03125 72.761719 13.351562 71.472656 10.886719 70.828125 C 9.066406 70.398438 3.066406 69.214844 1.78125 70.933594 C 1.03125 71.792969 1.457031 74.371094 1.566406 75.554688 C 1.886719 78.992188 4.996094 79.636719 7.78125 79.957031 C 10.996094 80.386719 14.210938 80.710938 17.425781 81.03125 C 17.53125 81.03125 17.636719 81.140625 17.636719 81.140625 C 20.960938 86.941406 25.996094 89.195312 32.640625 90.054688 C 32.855469 89.945312 32.855469 90.054688 32.640625 90.054688 Z M 231.519531 35.488281 C 224.230469 37.851562 219.195312 47.410156 216.730469 53.855469 C 216.730469 53.855469 216.625 53.960938 216.625 53.855469 C 216.625 53.855469 216.625 53.855469 216.625 53.746094 C 218.015625 45.582031 223.480469 29.6875 234.734375 32.050781 C 238.914062 32.910156 243.199219 36.5625 245.984375 40 C 245.984375 40 245.984375 40 245.984375 40.105469 C 245.984375 40.105469 245.984375 40.105469 245.878906 40.105469 C 241.699219 36.777344 237.304688 33.660156 231.519531 35.488281 Z M 203.871094 36.992188 L 137.542969 49.234375 C 137.4375 49.234375 137.328125 49.234375 137.328125 49.128906 C 136.257812 46.226562 134.757812 43.652344 132.828125 41.394531 C 132.828125 41.394531 132.828125 41.289062 132.828125 41.179688 C 132.828125 41.179688 132.828125 41.179688 132.9375 41.179688 C 155.761719 39.785156 178.585938 38.386719 201.410156 37.097656 C 202.160156 36.882812 203.015625 36.882812 203.871094 36.992188 C 203.871094 36.882812 203.871094 36.882812 203.871094 36.992188 C 203.871094 36.882812 203.871094 36.992188 203.871094 36.992188 Z M 239.664062 76.628906 C 238.054688 77.917969 236.449219 78.347656 234.625 77.917969 C 231.625 77.164062 229.375 74.15625 228.304688 71.363281 C 226.269531 66.316406 225.730469 60.621094 226.910156 55.359375 C 227.660156 51.8125 229.910156 46.226562 233.984375 45.367188 C 239.019531 44.296875 242.449219 50.738281 243.519531 54.605469 C 245.234375 61.160156 245.339844 72.007812 239.664062 76.628906 Z M 122.757812 87.046875 C 115.46875 87.046875 109.46875 78.132812 109.46875 66.960938 C 109.363281 55.894531 115.257812 46.871094 122.542969 46.765625 C 129.828125 46.765625 135.828125 55.679688 135.828125 66.851562 C 135.9375 78.023438 130.042969 87.046875 122.757812 87.046875 Z M 205.050781 62.769531 C 188.871094 64.703125 172.691406 66.636719 156.511719 68.570312 C 156.402344 68.570312 156.402344 68.570312 156.296875 68.570312 C 156.1875 68.570312 156.1875 68.464844 156.296875 68.464844 C 168.726562 66.421875 181.371094 64.703125 193.90625 62.984375 C 198.40625 62.339844 202.050781 62.125 206.125 62.554688 C 206.335938 62.554688 206.335938 62.664062 206.125 62.664062 C 205.800781 62.664062 205.480469 62.769531 205.050781 62.769531 Z M 84.609375 65.671875 C 76.359375 66.53125 67.894531 66.960938 59 66.960938 C 58.894531 66.960938 58.894531 66.960938 58.785156 66.960938 C 58.679688 66.960938 58.679688 66.851562 58.679688 66.851562 C 58.679688 66.746094 58.679688 66.636719 58.785156 66.636719 C 67.25 65.992188 76.039062 65.347656 84.503906 65.457031 C 86.644531 65.347656 86.644531 65.457031 84.609375 65.671875 Z M 203.015625 81.675781 C 181.15625 82.105469 159.402344 82.644531 137.542969 83.609375 C 136.152344 83.71875 134.757812 83.609375 133.257812 83.503906 C 133.152344 83.503906 133.042969 83.394531 133.152344 83.289062 C 133.152344 83.179688 133.257812 83.179688 133.367188 83.179688 C 134.007812 83.074219 134.652344 83.074219 135.292969 83.074219 C 149.546875 82.859375 163.476562 79.851562 177.40625 77.273438 C 183.835938 76.089844 188.226562 75.445312 190.800781 75.125 C 198.195312 74.371094 205.695312 74.050781 213.089844 73.835938 C 213.195312 73.835938 213.300781 73.835938 213.300781 73.941406 C 215.230469 77.273438 217.160156 79.742188 220.804688 81.246094 C 220.804688 81.246094 220.910156 81.355469 220.804688 81.355469 C 220.804688 81.355469 220.804688 81.355469 220.695312 81.355469 C 214.800781 81.570312 208.800781 81.570312 203.015625 81.675781 Z M 94.253906 85.867188 C 77.429688 86.832031 60.5 87.585938 43.785156 88.980469 C 43.675781 88.980469 43.675781 88.980469 43.675781 88.871094 C 43.675781 88.871094 43.675781 88.765625 43.785156 88.765625 C 47.320312 87.476562 50.105469 85.328125 52.25 82.320312 C 52.25 82.214844 52.355469 82.214844 52.464844 82.214844 L 95.753906 83.074219 C 95.859375 83.074219 95.859375 83.074219 95.96875 83.179688 C 96.398438 84.039062 96.933594 84.792969 97.574219 85.4375 C 97.574219 85.4375 97.574219 85.542969 97.574219 85.652344 C 97.574219 85.652344 97.574219 85.652344 97.46875 85.652344 C 96.398438 85.757812 95.324219 85.867188 94.253906 85.867188 Z M 94.253906 85.867188 "/></g><path style=" stroke:none;fill-rule:nonzero;fill:#000000;fill-opacity:1;" d="M 240.949219 52.671875 C 239.769531 50.308594 238.054688 48.054688 235.269531 47.515625 C 235.160156 47.515625 235.054688 47.515625 235.054688 47.625 C 235.269531 50.738281 235.484375 53.746094 235.699219 56.753906 C 235.699219 57.183594 235.910156 57.507812 236.125 57.722656 C 236.339844 57.828125 236.554688 57.828125 236.660156 57.613281 L 240.734375 52.886719 C 241.054688 52.886719 241.054688 52.78125 240.949219 52.671875 Z M 240.949219 52.671875 "/><path style=" stroke:none;fill-rule:nonzero;fill:#000000;fill-opacity:1;" d="M 233.125 58.796875 C 233.339844 58.582031 233.449219 58.257812 233.339844 57.828125 C 233.019531 54.605469 232.699219 51.492188 232.484375 48.484375 C 232.484375 48.160156 232.375 48.054688 232.054688 48.269531 C 229.484375 50.308594 228.195312 53.746094 227.660156 56.863281 C 227.660156 56.96875 227.660156 57.078125 227.769531 57.078125 L 232.484375 58.902344 C 232.804688 59.011719 233.019531 58.902344 233.125 58.796875 Z M 233.125 58.796875 "/><path style=" stroke:none;fill-rule:nonzero;fill:#000000;fill-opacity:1;" d="M 120.507812 49.558594 C 116.328125 50.632812 113.542969 54.714844 112.363281 58.6875 C 112.363281 58.796875 112.363281 58.796875 112.46875 58.902344 L 119.542969 62.664062 C 119.972656 62.878906 120.398438 62.769531 120.613281 62.339844 C 120.722656 62.234375 120.722656 62.125 120.722656 61.910156 L 120.613281 49.664062 C 120.613281 49.664062 120.613281 49.558594 120.507812 49.558594 Z M 120.507812 49.558594 "/><path style=" stroke:none;fill-rule:nonzero;fill:#000000;fill-opacity:1;" d="M 132.1875 58.257812 C 132.1875 58.257812 132.292969 58.152344 132.1875 58.152344 C 130.792969 54.390625 128.4375 51.167969 124.578125 49.773438 C 124.472656 49.773438 124.363281 49.773438 124.363281 49.878906 C 124.363281 49.878906 124.363281 49.878906 124.363281 49.988281 C 124.363281 53.855469 124.363281 57.722656 124.363281 61.589844 C 124.363281 62.339844 124.6875 62.664062 125.328125 62.984375 C 125.4375 62.984375 125.542969 62.984375 125.542969 62.984375 C 127.6875 61.160156 129.9375 59.65625 132.1875 58.257812 Z M 132.1875 58.257812 "/><path style=" stroke:none;fill-rule:nonzero;fill:#000000;fill-opacity:1;" d="M 242.339844 57.078125 C 241.054688 58.257812 239.125 59.976562 238.375 60.945312 C 237.734375 61.804688 237.625 62.769531 238.269531 63.738281 C 239.449219 65.671875 240.734375 67.496094 242.019531 69.429688 C 242.128906 69.539062 242.128906 69.539062 242.234375 69.429688 C 243.519531 65.671875 243.519531 61.050781 242.554688 57.078125 C 242.554688 57.078125 242.449219 57.078125 242.339844 57.078125 Z M 242.339844 57.078125 "/><path style=" stroke:none;fill-rule:nonzero;fill:#000000;fill-opacity:1;" d="M 233.019531 65.242188 C 233.339844 64.597656 233.339844 63.308594 232.484375 62.984375 C 230.875 62.554688 229.269531 62.019531 227.660156 61.589844 C 227.554688 61.589844 227.445312 61.589844 227.445312 61.695312 C 227.445312 65.457031 228.410156 68.894531 230.125 72.117188 C 230.234375 72.332031 230.339844 72.332031 230.445312 72.117188 C 231.304688 69.96875 232.054688 67.605469 233.019531 65.242188 Z M 233.019531 65.242188 "/><path style=" stroke:none;fill-rule:nonzero;fill:#000000;fill-opacity:1;" d="M 127.042969 67.175781 C 125.4375 68.25 126.1875 69.96875 127.042969 71.472656 C 128.542969 73.726562 129.828125 76.199219 131.328125 78.5625 C 131.4375 78.667969 131.4375 78.667969 131.542969 78.5625 C 133.792969 73.835938 134.542969 68.894531 133.902344 63.738281 C 133.902344 63.628906 133.792969 63.628906 133.6875 63.628906 C 130.472656 65.132812 128.222656 66.421875 127.042969 67.175781 Z M 127.042969 67.175781 "/><path style=" stroke:none;fill-rule:nonzero;fill:#000000;fill-opacity:1;" d="M 118.792969 68.035156 C 118.683594 67.925781 118.578125 67.820312 118.472656 67.710938 L 111.183594 64.382812 C 111.078125 64.382812 111.078125 64.382812 111.078125 64.488281 C 110.648438 69.429688 111.503906 74.371094 113.96875 78.5625 C 114.078125 78.667969 114.183594 78.667969 114.292969 78.667969 C 114.292969 78.667969 114.398438 78.667969 114.398438 78.5625 C 115.683594 76.304688 116.96875 73.941406 118.363281 71.578125 C 119.007812 70.183594 119.542969 69.429688 118.792969 68.035156 Z M 118.792969 68.035156 "/><path style=" stroke:none;fill-rule:nonzero;fill:#000000;fill-opacity:1;" d="M 233.019531 75.445312 C 235.910156 77.378906 238.804688 75.875 240.304688 73.191406 C 240.304688 73.082031 240.304688 72.976562 240.304688 72.867188 C 239.125 70.933594 237.949219 69 236.660156 67.066406 C 236.554688 66.851562 236.339844 66.636719 236.234375 66.636719 C 236.019531 66.421875 235.699219 66.53125 235.484375 66.746094 C 235.484375 66.746094 235.375 66.851562 235.375 66.960938 L 232.910156 75.339844 C 232.910156 75.230469 232.910156 75.339844 233.019531 75.445312 Z M 233.019531 75.445312 "/><path style=" stroke:none;fill-rule:nonzero;fill:#000000;fill-opacity:1;" d="M 117.398438 82.964844 C 121.042969 85.757812 124.898438 85.757812 128.328125 82.644531 C 128.4375 82.535156 128.4375 82.429688 128.4375 82.320312 L 123.613281 73.621094 C 123.292969 73.082031 122.757812 72.976562 122.222656 73.191406 C 122.007812 73.296875 121.898438 73.40625 121.792969 73.621094 L 117.398438 82.644531 C 117.292969 82.859375 117.292969 82.859375 117.398438 82.964844 Z M 117.398438 82.964844 "/></g></g></g><g style="fill:#000000;fill-opacity:1;"><g transform="translate(77.1735, 221.453101)"><path style="stroke:none" d="M 1.15625 -0.0625 L 4.8125 -25.703125 L 15.3125 -26.296875 C 17.320312 -26.410156 19.003906 -26.125 20.359375 -25.4375 C 21.722656 -24.757812 22.707031 -23.75 23.3125 -22.40625 C 23.914062 -21.070312 24.082031 -19.460938 23.8125 -17.578125 C 23.550781 -15.773438 22.910156 -14.203125 21.890625 -12.859375 C 20.867188 -11.515625 19.554688 -10.484375 17.953125 -9.765625 L 21.890625 -1.234375 L 15.390625 -0.859375 L 12 -8.59375 L 8.109375 -8.375 L 6.953125 -0.390625 Z M 8.703125 -13.296875 L 12.84375 -13.53125 C 14.351562 -13.613281 15.539062 -14.023438 16.40625 -14.765625 C 17.28125 -15.503906 17.804688 -16.492188 17.984375 -17.734375 C 18.179688 -18.921875 17.960938 -19.832031 17.328125 -20.46875 C 16.703125 -21.101562 15.617188 -21.378906 14.078125 -21.296875 L 9.84375 -21.046875 Z M 8.703125 -13.296875 "/></g></g><g style="fill:#000000;fill-opacity:1;"><g transform="translate(103.338615, 219.986415)"><path style="stroke:none" d="M 13.625 -0.25 C 10.894531 -0.09375 8.550781 -0.550781 6.59375 -1.625 C 4.644531 -2.695312 3.21875 -4.234375 2.3125 -6.234375 C 1.414062 -8.242188 1.148438 -10.582031 1.515625 -13.25 C 1.878906 -15.789062 2.75 -18.0625 4.125 -20.0625 C 5.507812 -22.070312 7.265625 -23.671875 9.390625 -24.859375 C 11.515625 -26.054688 13.851562 -26.726562 16.40625 -26.875 C 19.144531 -27.03125 21.488281 -26.570312 23.4375 -25.5 C 25.382812 -24.4375 26.8125 -22.90625 27.71875 -20.90625 C 28.632812 -18.914062 28.898438 -16.578125 28.515625 -13.890625 C 28.160156 -11.347656 27.289062 -9.070312 25.90625 -7.0625 C 24.53125 -5.0625 22.785156 -3.460938 20.671875 -2.265625 C 18.554688 -1.066406 16.207031 -0.394531 13.625 -0.25 Z M 7.375 -13.03125 C 7.164062 -11.507812 7.289062 -10.1875 7.75 -9.0625 C 8.21875 -7.9375 8.972656 -7.082031 10.015625 -6.5 C 11.054688 -5.925781 12.3125 -5.675781 13.78125 -5.75 C 15.300781 -5.84375 16.6875 -6.253906 17.9375 -6.984375 C 19.195312 -7.722656 20.238281 -8.707031 21.0625 -9.9375 C 21.894531 -11.175781 22.425781 -12.566406 22.65625 -14.109375 C 22.894531 -15.640625 22.773438 -16.960938 22.296875 -18.078125 C 21.828125 -19.191406 21.070312 -20.039062 20.03125 -20.625 C 18.988281 -21.207031 17.726562 -21.457031 16.25 -21.375 C 14.75 -21.289062 13.363281 -20.878906 12.09375 -20.140625 C 10.832031 -19.398438 9.785156 -18.421875 8.953125 -17.203125 C 8.128906 -15.984375 7.601562 -14.59375 7.375 -13.03125 Z M 7.375 -13.03125 "/></g></g><g style="fill:#000000;fill-opacity:1;"><g transform="translate(134.214888, 218.255644)"><path style="stroke:none" d="M -1.5625 0.09375 L 12.140625 -26.125 L 17.828125 -26.4375 L 24.25 -1.359375 L 18.484375 -1.03125 L 17.4375 -5.375 L 7.328125 -4.8125 L 4.96875 -0.28125 Z M 9.4375 -9.46875 L 16.53125 -9.859375 L 14.265625 -19.046875 Z M 9.4375 -9.46875 "/></g></g><g style="fill:#000000;fill-opacity:1;"><g transform="translate(161.358465, 216.73411)"><path style="stroke:none" d="M 1.15625 -0.0625 L 4.8125 -25.703125 L 14.65625 -26.265625 C 17.269531 -26.410156 19.515625 -25.953125 21.390625 -24.890625 C 23.265625 -23.835938 24.640625 -22.328125 25.515625 -20.359375 C 26.390625 -18.390625 26.644531 -16.109375 26.28125 -13.515625 C 25.9375 -11.035156 25.09375 -8.859375 23.75 -6.984375 C 22.414062 -5.109375 20.679688 -3.617188 18.546875 -2.515625 C 16.421875 -1.410156 14.007812 -0.785156 11.3125 -0.640625 Z M 7.75 -5.734375 L 11.671875 -5.953125 C 13.191406 -6.035156 14.570312 -6.425781 15.8125 -7.125 C 17.050781 -7.832031 18.070312 -8.769531 18.875 -9.9375 C 19.6875 -11.113281 20.195312 -12.460938 20.40625 -13.984375 C 20.738281 -16.222656 20.320312 -17.972656 19.15625 -19.234375 C 18 -20.492188 16.285156 -21.054688 14.015625 -20.921875 L 9.859375 -20.6875 Z M 7.75 -5.734375 "/></g></g><g style="fill:#000000;fill-opacity:1;"><g transform="translate(190.060356, 215.125224)"><path style="stroke:none" d="M 1.15625 -0.0625 L 4.8125 -25.703125 L 9.34375 -25.96875 L 16.453125 -13.171875 L 27.34375 -26.96875 L 32.65625 -27.265625 L 28.984375 -1.625 L 23.15625 -1.296875 L 24.34375 -9.71875 L 25.390625 -16.609375 L 18.0625 -7.296875 L 14.09375 -7.078125 L 9.25 -15.8125 L 8.1875 -8.8125 L 6.984375 -0.390625 Z M 1.15625 -0.0625 "/></g></g><g style="fill:#000000;fill-opacity:1;"><g transform="translate(224.705572, 213.183185)"><path style="stroke:none" d="M -1.5625 0.09375 L 12.140625 -26.125 L 17.828125 -26.4375 L 24.25 -1.359375 L 18.484375 -1.03125 L 17.4375 -5.375 L 7.328125 -4.8125 L 4.96875 -0.28125 Z M 9.4375 -9.46875 L 16.53125 -9.859375 L 14.265625 -19.046875 Z M 9.4375 -9.46875 "/></g></g><g style="fill:#000000;fill-opacity:1;"><g transform="translate(251.849149, 211.661651)"><path style="stroke:none" d="M 7.171875 -0.40625 L 10.03125 -20.59375 L 2.0625 -20.140625 L 2.859375 -25.59375 L 24.671875 -26.828125 L 23.875 -21.375 L 15.90625 -20.921875 L 13.046875 -0.734375 Z M 7.171875 -0.40625 "/></g></g><g style="fill:#000000;fill-opacity:1;"><g transform="translate(276.564666, 210.276221)"><path style="stroke:none" d="M 1.15625 -0.0625 L 4.8125 -25.703125 L 21.484375 -26.640625 L 20.8125 -21.75 L 9.9375 -21.140625 L 9.171875 -15.8125 L 19.078125 -16.375 L 18.375 -11.5 L 8.515625 -10.953125 L 7.6875 -5.359375 L 18.921875 -5.984375 L 18.21875 -1.015625 Z M 1.15625 -0.0625 "/></g></g></g></g></g></svg>